HIERARCHY
ROOT Hips
{
  OFFSET 51.063 96.8071 15.5377
  CHANNELS 6 Xposition Yposition Zposition Zrotation Xrotation Yrotation
  JOINT spine
  {
    OFFSET 0 7.96568 0.458067
    CHANNELS 3 Zrotation Xrotation Yrotation
    JOINT spine1
    {
      OFFSET 0 10.2431 0
      CHANNELS 3 Zrotation Xrotation Yrotation
      JOINT spine2
      {
        OFFSET 0 9.81475 0
        CHANNELS 3 Zrotation Xrotation Yrotation
        JOINT Neck
        {
          OFFSET 0 25.1986 1.20138
          CHANNELS 3 Zrotation Xrotation Yrotation
          JOINT Head
          {
            OFFSET 0 7.61315 0
            CHANNELS 3 Zrotation Xrotation Yrotation
            End Site
            {
              OFFSET 0 18.4281 -6.07733
            }
          }
        }
        JOINT RightShoulder
        {
          OFFSET -4.1327 10.5992 -0.575451
          CHANNELS 3 Zrotation Xrotation Yrotation
          JOINT RightArm
          {
            OFFSET 0 13.9018 0
            CHANNELS 3 Zrotation Xrotation Yrotation
            JOINT RightArmRoll
            {
              OFFSET 0 7.01789 0
              CHANNELS 3 Zrotation Xrotation Yrotation
              JOINT RightForeArm
              {
                OFFSET 0 20.4406 0
                CHANNELS 3 Zrotation Xrotation Yrotation
                JOINT RightForeArmRoll
                {
                  OFFSET 0 7.87515 0
                  CHANNELS 3 Zrotation Xrotation Yrotation
                  JOINT RightHand
                  {
                    OFFSET 0 15.8037 0
                    CHANNELS 3 Zrotation Xrotation Yrotation
                    End Site
                    {
                      OFFSET 0 0 0
                    }
                  }
                }
              }
            }
          }
        }
        JOINT LeftShoulder
        {
          OFFSET 4.1327 10.5992 -0.575451
          CHANNELS 3 Zrotation Xrotation Yrotation
          JOINT LeftArm
          {
            OFFSET 0 13.9018 0
            CHANNELS 3 Zrotation Xrotation Yrotation
            JOINT LeftArmRoll
            {
              OFFSET 0 7.01789 0
              CHANNELS 3 Zrotation Xrotation Yrotation
              JOINT LeftForeArm
              {
                OFFSET 0 20.4406 0
                CHANNELS 3 Zrotation Xrotation Yrotation
                JOINT LeftForeArmRoll
                {
                  OFFSET 0 7.87516 0
                  CHANNELS 3 Zrotation Xrotation Yrotation
                  JOINT LeftHand
                  {
                    OFFSET 0 15.8037 0
                    CHANNELS 3 Zrotation Xrotation Yrotation
                    End Site
                    {
                      OFFSET 0 0 0
                    }
                  }
                }
              }
            }
          }
        }
      }
    }
  }
  JOINT RightUpLeg
  {
    OFFSET -7.06048 -1.2947 -1.0861
    CHANNELS 3 Zrotation Xrotation Yrotation
    JOINT RightUpLegRoll
    {
      OFFSET 0 18.5308 0
      CHANNELS 3 Zrotation Xrotation Yrotation
      JOINT RightLeg
      {
        OFFSET 0 -22.9476 0
        CHANNELS 3 Zrotation Xrotation Yrotation
        JOINT RightLegRoll
        {
          OFFSET 0 23.0226 0
          CHANNELS 3 Zrotation Xrotation Yrotation
          JOINT RightFoot
          {
            OFFSET 0 19.1625 0
            CHANNELS 3 Zrotation Xrotation Yrotation
            JOINT RightToeBase
            {
              OFFSET 0 16.0188 0
              CHANNELS 3 Zrotation Xrotation Yrotation
              End Site
              {
                OFFSET 0.00678979 7.75782 -0.894206
              }
            }
          }
        }
      }
    }
  }
  JOINT LeftUpLeg
  {
    OFFSET 7.06048 -1.2947 -1.0861
    CHANNELS 3 Zrotation Xrotation Yrotation
    JOINT LeftUpLegRoll
    {
      OFFSET 0 18.5309 0
      CHANNELS 3 Zrotation Xrotation Yrotation
      JOINT LeftLeg
      {
        OFFSET 0 22.9475 0
        CHANNELS 3 Zrotation Xrotation Yrotation
        JOINT LeftLegRoll
        {
          OFFSET 0 23.2355 0
          CHANNELS 3 Zrotation Xrotation Yrotation
          JOINT LeftFoot
          {
            OFFSET 0 18.9496 0
            CHANNELS 3 Zrotation Xrotation Yrotation
            JOINT LeftToeBase
            {
              OFFSET 0 16.0188 0
              CHANNELS 3 Zrotation Xrotation Yrotation
              End Site
              {
                OFFSET -0.0304289 7.75781 -0.894207
              }
            }
          }
        }
      }
    }
  }
}
MOTION
Frames: 4
Frame Time: 0.00208333
51.0125 96.8212 14.542 0.831014 -6.62949 -3.07563 0.119099 -0.470184 -0.375931 0.239074 3.06138 -0.785885 0.248688 4.70639 -0.789704 -8.63001 15.9573 5.97762 2.67772 8.70896 3.58277 67.3758 -2.24868 -2.19848 111.705 29.0082 0.962881 -1.43125e-014 1.27222e-014 -3.18055e-015 6.66801 4.44679 -1.13419 -7.41198e-006 -8.02491e-006 -3.00175 8.0293 -4.95146 0.697677 -66.2712 -2.40053 2.17922 -112.168 26.115 -1.1242 1.09211e-007 -3.99743e-009 2.94471e-007 -4.24586 0.0993765 0.915756 8.81711e-006 -5.77576e-006 3.00465 -8.02971 -4.9514 -0.697636 172.157 -4.88996 5.93889 180 7.01498e-015 178.728 178.255 6.72343 179.654 1.38561e-006 -8.76477e-006 0.113417 -19.2777 68.4783 19.933 8.13649 25.2327 -3.48773 -174.801 -6.66045 -1.88454 4.5067e-006 -1.99009e-005 -1.29046 -1.85046 -5.22313 0.0275644 -9.00803e-007 -5.90701e-006 -0.0972537 19.2773 68.4911 -19.962 -8.13649 25.2327 3.48774 
51.0107 96.8122 14.5418 0.82697 -6.61655 -3.08136 0.121361 -0.470761 -0.375955 0.243566 3.05992 -0.786315 0.253194 4.70493 -0.790264 -8.66668 15.9559 5.97729 2.69889 8.64168 3.57384 67.3633 -2.24036 -2.19304 111.641 28.9447 1.13262 -7.95139e-015 3.18055e-015 -0 6.57222 4.43286 -1.13233 -7.41198e-006 -8.02491e-006 -3.00175 8.0293 -4.95146 0.697677 -66.269 -2.4401 2.20002 -112.047 25.9917 -1.21024 1.09211e-007 -3.99744e-009 2.94471e-007 -4.2732 0.158951 0.913685 8.81711e-006 -5.77576e-006 3.00465 -8.02971 -4.9514 -0.697636 172.167 -4.86919 5.9263 180 7.01498e-015 178.728 178.267 6.7424 179.653 1.38561e-006 -8.76477e-006 0.113874 -19.2855 68.4872 19.9415 8.13649 25.2327 -3.48773 -174.791 -6.63152 -1.89482 4.5067e-006 -1.99009e-005 -1.28991 -1.85794 -5.25976 0.0275368 -9.00803e-007 -5.90701e-006 -0.0970606 19.2869 68.5019 -19.9723 -8.13649 25.2327 3.48774 
50.994 96.7875 14.5583 0.822821 -6.60349 -3.08741 0.123676 -0.47134 -0.376001 0.248166 3.05844 -0.786847 0.257811 4.70345 -0.790929 -8.70417 15.9547 5.97736 2.71974 8.57313 3.5651 67.3501 -2.23164 -2.18734 111.578 28.8809 1.30112 -9.54166e-015 6.36111e-015 -4.77083e-015 6.47686 4.41892 -1.13049 -7.41198e-006 -8.02491e-006 -3.00175 8.0293 -4.95146 0.697677 -66.2656 -2.48023 2.22104 -111.929 25.8693 -1.29492 1.09211e-007 -3.99744e-009 2.94471e-007 -4.3003 0.214857 0.911273 8.81711e-006 -5.77576e-006 3.00465 -8.02971 -4.9514 -0.697636 172.178 -4.84798 5.91317 180 7.01498e-015 178.729 178.279 6.7619 179.653 1.38561e-006 -8.76477e-006 0.114334 -19.2935 68.4961 19.95 8.13649 25.2327 -3.48773 -174.781 -6.60235 -1.90484 4.5067e-006 -1.99009e-005 -1.28934 -1.86513 -5.29672 0.0275409 -9.00803e-007 -5.90701e-006 -0.0968628 19.2968 68.5129 -19.9829 -8.13649 25.2327 3.48774 
50.9966 96.7956 14.5599 0.818599 -6.59037 -3.09368 0.126029 -0.47192 -0.376062 0.252843 3.05695 -0.78745 0.262505 4.70196 -0.791668 -8.74224 15.9536 5.97773 2.74036 8.5037 3.55649 67.3364 -2.22266 -2.18146 111.516 28.817 1.46869 -7.95139e-016 3.18055e-015 -1.59028e-015 6.3818 4.40496 -1.12867 -7.41198e-006 -8.02491e-006 -3.00175 8.0293 -4.95146 0.697677 -66.2613 -2.52076 2.24221 -111.813 25.7475 -1.37861 1.09211e-007 -3.99744e-009 2.94471e-007 -4.32722 0.268194 0.908623 8.81711e-006 -5.77576e-006 3.00465 -8.02971 -4.9514 -0.697636 172.188 -4.82646 5.89966 180 7.01498e-015 178.729 178.292 6.78181 179.652 1.38561e-006 -8.76477e-006 0.114797 -19.3015 68.5051 19.9586 8.13649 25.2327 -3.48773 -174.771 -6.57302 -1.91468 4.5067e-006 -1.99009e-005 -1.28875 -1.87213 -5.3339 0.0275671 -9.00803e-007 -5.90701e-006 -0.0966617 19.3068 68.5242 -19.9937 -8.13649 25.2327 3.48774 
